<svg width="81" height="122" viewBox="0 0 81 122" fill="none" xmlns="http://www.w3.org/2000/svg">
<path d="M71.7656 0.355469H9.23438C4.47715 0.355469 0.609375 4.22324 0.609375 8.98047V112.48C0.609375 117.238 4.47715 121.105 9.23438 121.105H71.7656C76.5229 121.105 80.3906 117.238 80.3906 112.48V8.98047C80.3906 4.22324 76.5229 0.355469 71.7656 0.355469ZM40.5 103.047C37.5217 103.047 35.1094 100.635 35.1094 97.6562C35.1094 94.6779 37.5217 92.2656 40.5 92.2656C43.4783 92.2656 45.8906 94.6779 45.8906 97.6562C45.8906 100.635 43.4783 103.047 40.5 103.047Z" fill="url(#paint0_linear_588_125)"/>
<defs>
<linearGradient id="paint0_linear_588_125" x1="0.609375" y1="0.355469" x2="80.3906" y2="0.355469" gradientUnits="userSpaceOnUse">
<stop stop-color="#FF9F45"/>
<stop offset="1" stop-color="#B36D10"/>
</linearGradient>
</defs>
</svg>
