<svg width="111" height="105" viewBox="0 0 111 105" fill="none" xmlns="http://www.w3.org/2000/svg">
<path d="M14.1 13.1476C14.1 6.17855 19.896 0.699951 26.8305 0.699951H97.9695C104.904 0.699951 110.7 6.17855 110.7 13.1476V64.1524C110.7 71.1214 104.904 76.6 97.9695 76.6H55.5V62.8H72.75C73.665 62.8 74.5425 62.4365 75.1895 61.7895C75.8365 61.1425 76.2 60.2649 76.2 59.35C76.2 58.435 75.8365 57.5574 75.1895 56.9104C74.5425 56.2634 73.665 55.9 72.75 55.9H55.5V35.2C55.5 31.54 54.0461 28.0299 51.4581 25.4419C48.8701 22.8539 45.36 21.4 41.7 21.4H14.1V13.1476ZM10.65 28.3C7.90501 28.3 5.27245 29.3904 3.33145 31.3314C1.39045 33.2724 0.300003 35.905 0.300003 38.65V93.85C0.300003 96.5949 1.39045 99.2275 3.33145 101.169C5.27245 103.11 7.90501 104.2 10.65 104.2H38.25C40.995 104.2 43.6276 103.11 45.5686 101.169C47.5096 99.2275 48.6 96.5949 48.6 93.85V38.65C48.6 35.905 47.5096 33.2724 45.5686 31.3314C43.6276 29.3904 40.995 28.3 38.25 28.3H10.65ZM17.55 86.95C17.55 86.035 17.9135 85.1574 18.5605 84.5104C19.2075 83.8634 20.085 83.5 21 83.5H27.9C28.815 83.5 29.6925 83.8634 30.3395 84.5104C30.9865 85.1574 31.35 86.035 31.35 86.95C31.35 87.8649 30.9865 88.7425 30.3395 89.3895C29.6925 90.0365 28.815 90.4 27.9 90.4H21C20.085 90.4 19.2075 90.0365 18.5605 89.3895C17.9135 88.7425 17.55 87.8649 17.55 86.95Z" fill="url(#paint0_linear_588_71)"/>
<defs>
<linearGradient id="paint0_linear_588_71" x1="0.300003" y1="0.699951" x2="110.7" y2="0.699951" gradientUnits="userSpaceOnUse">
<stop stop-color="#FF9F45"/>
<stop offset="1" stop-color="#B36D10"/>
</linearGradient>
</defs>
</svg>
