<svg xmlns="http://www.w3.org/2000/svg" viewBox="0 0 1440 320"><path fill="#4F4F4F" fill-opacity="1" d="M0,192L30,176C60,160,120,128,180,144C240,160,300,224,360,240C420,256,480,224,540,186.7C600,149,660,107,720,85.3C780,64,840,64,900,90.7C960,117,1020,171,1080,160C1140,149,1200,75,1260,37.3C1320,0,1380,0,1410,0L1440,0L1440,320L1410,320C1380,320,1320,320,1260,320C1200,320,1140,320,1080,320C1020,320,960,320,900,320C840,320,780,320,720,320C660,320,600,320,540,320C480,320,420,320,360,320C300,320,240,320,180,320C120,320,60,320,30,320L0,320Z"></path></svg>